PathFileType	4	(X/Y/Z)	C:\Users\Basilio\Documents\Thesis Gigler\squatting_fais\c3dfiles\073\SLS_front_pre4\markers_experimental.trc
DataRate	CameraRate	NumFrames	NumMarkers	Units	OrigDataRate	OrigDataStartFrame	OrigNumFrames
200.000000	200.000000	4	61	mm	200.000000	996	1329
Frame#	Time	FHD			LBHD			RBHD			C7			T10			CLAV			LSHO			LUUPA			LMUPA			LDUPA			LLEP			LMEP			LRAD			LUL			LRFIN			RSHO			RUPA1			RMUPA			RDUPA			RLEP			RMEP			RRAD			RUL			RUFIN			LASI			RASI			USACR			LSACR			RSACR			LTHI1			LTHI2			LTHI3			LTHI4			LLFC			LMFC			LTIB1			LTIB2			LTIB3			LTIB4			LLMAL			LMMAL			LHEE			LMT1			LMT2			LMT5			RTHI			RTHI2			RTHI3			RTHI4			RLFC			RMFC			RTIB1			RTIB2			RTIB3			RTIB4			RLMAL			RMMAL			RHEE			RMT1			RMT2			RMT5			
		X1	Y1	Z1	X2	Y2	Z2	X3	Y3	Z3	X4	Y4	Z4	X5	Y5	Z5	X6	Y6	Z6	X7	Y7	Z7	X8	Y8	Z8	X9	Y9	Z9	X10	Y10	Z10	X11	Y11	Z11	X12	Y12	Z12	X13	Y13	Z13	X14	Y14	Z14	X15	Y15	Z15	X16	Y16	Z16	X17	Y17	Z17	X18	Y18	Z18	X19	Y19	Z19	X20	Y20	Z20	X21	Y21	Z21	X22	Y22	Z22	X23	Y23	Z23	X24	Y24	Z24	X25	Y25	Z25	X26	Y26	Z26	X27	Y27	Z27	X28	Y28	Z28	X29	Y29	Z29	X30	Y30	Z30	X31	Y31	Z31	X32	Y32	Z32	X33	Y33	Z33	X34	Y34	Z34	X35	Y35	Z35	X36	Y36	Z36	X37	Y37	Z37	X38	Y38	Z38	X39	Y39	Z39	X40	Y40	Z40	X41	Y41	Z41	X42	Y42	Z42	X43	Y43	Z43	X44	Y44	Z44	X45	Y45	Z45	X46	Y46	Z46	X47	Y47	Z47	X48	Y48	Z48	X49	Y49	Z49	X50	Y50	Z50	X51	Y51	Z51	X52	Y52	Z52	X53	Y53	Z53	X54	Y54	Z54	X55	Y55	Z55	X56	Y56	Z56	X57	Y57	Z57	X58	Y58	Z58	X59	Y59	Z59	X60	Y60	Z60	X61	Y61	Z61	

997	4.98	-187.5804443359375	1687.460083007813	-788.7347412109377	-323.2288818359376	1656.458251953125	-807.735046386719	-340.9575805664063	1637.373901367188	-673.5294189453126	-368.8344116210938	1541.307983398438	-737.6925048828126	-475.3717651367189	1222.908813476563	-733.4421997070314	-253.0709686279297	1443.76171875	-743.6631469726564	-283.1152954101563	1496.14697265625	-886.150573730469	-210.5767974853516	1416.470458984375	-985.546813964844	-167.7169189453125	1435.394653320313	-966.0047607421877	-149.4475708007813	1386.209228515625	-997.4527587890627	-46.69328689575196	1358.944213867188	-1007.229248046875	-48.51223373413087	1305.875854492188	-960.3385009765627	219.5561065673829	1385.110473632813	-913.6201171875002	218.3342895507813	1379.919921875	-987.1405029296877	300.2527465820313	1399.3427734375	-911.970153808594	-260.3492431640626	1488.8203125	-600.9271240234376	-170.0847778320313	1383.0556640625	-504.2438964843751	-130.4897155761719	1404.155883789063	-521.8027343750001	-107.9322662353516	1353.3974609375	-499.6207580566407	-17.14012145996094	1333.453491210938	-502.4684448242189	-24.51571273803712	1279.08935546875	-565.2405395507814	237.0686492919922	1354.522094726563	-626.8944091796876	244.9979095458985	1364.509765625	-549.6320190429689	322.3021240234376	1374.409301757813	-632.8670043945314	-344.3424072265626	1064.177734375	-883.426208496094	-312.2615966796876	1029.450317382813	-635.9927978515626	-506.8802795410157	1106.950439453125	-732.3720092773439	-523.4912109375001	1081.457275390625	-762.3369140625001	-517.1430664062501	1072.295654296875	-707.1988525390626	-217.9571990966797	815.2945556640627	-939.2844848632815	-146.2295379638672	777.4213867187502	-914.694763183594	-121.5993804931641	803.4528808593752	-880.2534179687502	-135.9102783203125	719.4194335937501	-910.5338134765627	-101.5315475463867	672.4125976562501	-911.7361450195315	-116.9990005493164	655.7797241210939	-774.9276123046877	27.49122047424317	516.8661499023439	-859.164978027344	-0.2890704870224	459.8246459960939	-919.6640625000002	36.2024269104004	469.6541137695314	-894.3444824218752	68.82942199707033	397.222869873047	-863.623474121094	67.7973098754883	265.9726867675782	-900.6390380859377	58.2992401123047	284.4687194824219	-815.1938476562502	23.46143531799317	209.9437866210938	-867.288269042969	223.9799804687501	288.5197448730469	-798.2627563476565	230.1415252685547	293.1513977050782	-836.0173950195315	211.2681427001954	263.8523254394532	-895.291198730469	-382.8624877929688	787.5103149414065	-588.9696044921876	-341.5485534667969	735.7637329101564	-592.7914428710939	-308.3664245605469	740.6531372070314	-595.6667480468751	-359.7707214355469	658.9052734375001	-621.0335083007814	-327.1877441406251	514.8764038085939	-646.6246337890626	-326.5136718750001	514.8585815429689	-777.5127563476565	-290.4212646484376	360.6832885742188	-749.7822875976564	-311.2484130859376	274.2450256347657	-688.5120849609376	-288.8473205566407	275.6730957031251	-731.4266357421876	-309.8536071777344	234.0791931152344	-766.6471557617189	-362.9766235351563	102.5149688720703	-722.3558349609376	-357.7655944824219	128.559814453125	-807.1485595703127	-433.0873413085939	83.28931427001955	-777.105163574219	-209.0278778076172	54.44424438476564	-789.1215820312502	-209.173080444336	52.86488723754884	-747.5369873046876	-253.2165527343751	35.28136062622071	-700.1558837890626	
998	4.985	-187.9279022216797	1688.177001953125	-788.7918701171877	-323.5959167480469	1657.178588867188	-807.857116699219	-341.4211425781251	1638.143798828125	-673.5837402343751	-369.3363952636719	1541.786010742188	-737.6981811523439	-474.740936279297	1222.989624023438	-733.1986694335939	-252.6255187988282	1444.720825195313	-743.5432739257814	-283.6069641113282	1496.577514648438	-886.3398437500002	-210.9085235595704	1416.729858398438	-985.6121215820315	-168.2105865478516	1435.788696289063	-966.1319580078127	-150.0323944091797	1386.491088867188	-997.5491943359377	-47.14160919189454	1359.265502929688	-1007.271728515625	-48.90403366088869	1306.270751953125	-960.4003906250002	219.198471069336	1385.486450195313	-913.964294433594	217.8656616210938	1380.218017578125	-987.460144042969	299.8550415039063	1399.689453125	-912.4390869140627	-260.6553039550782	1489.535522460938	-600.9567260742189	-170.249252319336	1383.59228515625	-504.3468322753907	-130.6367492675782	1404.71044921875	-521.7809448242189	-108.1263809204102	1353.887573242188	-499.6868286132814	-17.3506031036377	1333.9189453125	-502.5832519531251	-24.82820892333985	1279.61572265625	-565.4012451171876	236.7741394042969	1355.067504882813	-627.0282592773439	244.8347473144532	1364.87451171875	-549.7478637695314	322.1140441894532	1374.814453125	-633.0469970703126	-343.5730895996094	1064.62841796875	-883.4932861328127	-311.2534179687501	1029.706176757813	-636.0303955078126	-506.1188049316407	1107.245483398438	-732.1708984375001	-522.8466186523439	1081.825073242188	-762.0397949218751	-516.3208007812501	1072.627319335938	-706.9134521484376	-217.7968750000001	815.1946411132815	-939.1464843750002	-146.1877136230469	777.0432739257815	-914.5301513671877	-121.4314498901367	803.0599365234377	-880.1643676757815	-136.0731811523438	719.0524291992189	-910.396667480469	-101.8485565185547	671.9969482421876	-911.6767578125002	-117.4012603759766	655.2971801757814	-774.8708496093752	26.77746772766114	515.9835815429689	-858.984313964844	-1.06829833984375	459.034149169922	-919.4617309570315	35.47614288330079	468.8703918457032	-894.2112426757815	67.65866088867189	396.1829223632814	-863.4499511718752	66.37036132812501	265.0073242187501	-900.5838623046877	56.75130081176759	283.4707946777344	-815.0694580078127	21.6604118347168	209.1253814697266	-867.1477661132815	222.5677032470704	286.9185180664063	-798.2122802734377	228.5717163085938	291.5591430664063	-835.8901977539065	209.7988433837891	262.4320373535157	-895.2652587890627	-382.5734863281251	787.8257446289065	-588.8662719726564	-341.4568786621094	735.9898681640626	-592.8060913085939	-308.2623596191407	740.7138671875001	-595.7520141601564	-360.0458984375001	659.1166381835939	-620.9893188476564	-327.6432800292969	515.0858154296876	-647.0538330078126	-327.4248962402344	514.8248901367189	-777.5805664062502	-290.9764099121094	360.7545471191407	-749.7879638671876	-311.6427917480469	274.3468933105469	-688.4588012695314	-289.1568603515626	275.7886352539063	-731.3594970703126	-310.1612548828126	234.1194305419922	-766.6137695312501	-363.0019226074219	102.5224838256836	-722.3275756835939	-357.8049926757813	128.5511016845703	-807.1540527343752	-433.1023254394532	83.26988983154298	-777.0407714843752	-209.0211181640626	54.46398162841798	-789.1126098632815	-209.1537475585938	52.88450241088869	-747.4846801757814	-253.2216949462891	35.34236907958985	-700.1469116210939	
999	4.99	-188.4074401855469	1688.800903320313	-789.0168457031252	-324.0779724121094	1657.837646484375	-807.9937133789065	-341.8919982910157	1638.973999023438	-673.7042236328126	-369.9375305175782	1542.335327148438	-737.7951660156251	-474.1048278808595	1223.131958007813	-732.8657836914064	-253.0581817626954	1445.588134765625	-743.6464233398439	-284.0677490234376	1497.08642578125	-886.5364379882815	-211.4815521240235	1417.059814453125	-985.7509765625002	-168.5428924560547	1436.155639648438	-966.3250732421877	-150.4790191650391	1386.778076171875	-997.6470947265627	-47.57597351074219	1359.568969726563	-1007.508422851563	-49.38783645629884	1306.655517578125	-960.5352783203127	218.7627105712891	1385.8291015625	-914.298522949219	217.2281188964844	1380.557983398438	-987.908630371094	299.4685974121094	1399.992065429688	-912.8689575195315	-260.8667907714844	1490.197631835938	-600.9512329101564	-170.4429321289063	1384.141479492188	-504.4514465332032	-130.7911071777344	1405.220092773438	-521.8791503906251	-108.3157043457032	1354.391967773438	-499.8355407714845	-17.58106422424317	1334.31689453125	-502.7217102050782	-25.06183433532716	1280.109130859375	-565.6235961914064	236.4523315429688	1355.761596679688	-627.1784057617189	244.6490325927735	1365.203979492188	-549.8942260742189	321.9127807617188	1375.225708007813	-633.2223510742189	-342.8886718750001	1064.972290039063	-883.3894653320315	-310.2461242675782	1029.90869140625	-635.9395751953126	-505.3757934570314	1107.6083984375	-731.9443359375001	-522.0770874023439	1082.21484375	-761.8054809570314	-515.3388671875001	1072.915893554688	-706.6192626953126	-217.6404876708985	815.1219482421877	-939.033874511719	-146.0702362060547	776.6783447265627	-914.3221435546877	-121.2891006469727	802.6392822265627	-880.089050292969	-136.0549774169922	718.7082519531251	-910.2561645507815	-101.9741439819336	671.6009521484376	-911.5902099609377	-117.7164306640625	654.9057617187501	-774.7701416015627	26.04557609558106	515.0453491210939	-858.9028320312502	-1.733204483985901	458.3735656738282	-919.316833496094	34.55182266235352	467.9590454101564	-894.0308227539065	66.4834442138672	395.168670654297	-863.4603271484377	64.80510711669923	264.0365295410157	-900.6128540039065	55.21242141723634	282.5247192382813	-815.0413818359377	19.9409236907959	208.2354278564454	-867.079528808594	221.0059204101563	285.4916381835938	-797.951110839844	227.1091308593751	289.9956970214844	-835.6118164062502	207.7298431396485	260.9685668945313	-895.1403808593752	-382.2439880371094	788.1206054687502	-588.6865234375001	-341.3415527343751	736.1955566406251	-592.7332763671876	-308.1432800292969	740.7777099609376	-595.7183837890626	-360.2644042968751	659.3595581054689	-620.9042968750001	-328.3735961914063	515.1616821289064	-647.0625000000001	-328.3301086425782	514.7827148437501	-777.5764770507815	-291.5323486328126	360.8636779785157	-749.8627319335939	-311.9954223632813	274.4665832519532	-688.4835815429689	-289.5181884765626	275.9143371582032	-731.2882080078126	-310.4607849121094	234.234848022461	-766.5974731445314	-363.0019531250001	102.5219192504883	-722.3326416015626	-357.9297790527344	128.5287628173828	-807.1214599609377	-433.1174316406251	83.28254699707033	-777.0579223632815	-209.0593414306641	54.42948532104494	-789.122009277344	-209.1545867919922	52.88279724121095	-747.4907836914064	-253.2180175781251	35.35641860961915	-700.1746826171876	
1000	4.995	-188.7753295898438	1689.466796875	-789.1383056640627	-324.5673522949219	1658.560180664063	-808.136169433594	-342.3483581542969	1639.82958984375	-674.1415405273439	-370.4021606445313	1542.815673828125	-737.8179321289064	-473.4655761718751	1223.193115234375	-732.6378784179689	-253.324203491211	1446.486572265625	-743.7573242187501	-284.5512390136719	1497.557861328125	-886.6838378906252	-212.0432739257813	1417.347045898438	-985.7883300781252	-169.0497283935547	1436.537109375	-966.511901855469	-150.8567810058594	1387.028198242188	-997.7431640625002	-48.31141281127931	1359.897827148438	-1007.643615722656	-49.79429244995119	1307.073364257813	-960.6424560546877	218.3259277343751	1386.137817382813	-914.7872314453127	216.8256225585938	1380.844848632813	-988.283386230469	299.1545410156251	1400.309448242188	-913.2742919921877	-261.1259765625001	1490.77734375	-600.9204101562501	-170.5988159179688	1384.652465820313	-504.532928466797	-130.9665222167969	1405.712036132813	-521.9541625976564	-108.4879379272461	1354.9248046875	-499.9163818359376	-17.82257461547852	1334.738525390625	-502.8689270019532	-25.30292320251466	1280.619750976563	-565.7649536132814	236.2991027832032	1356.158813476563	-627.4522705078126	244.4548950195313	1365.535888671875	-550.0701293945314	321.6681213378907	1375.547241210938	-633.4692993164064	-342.1747131347657	1065.46435546875	-883.4050903320315	-309.1675415039063	1030.10693359375	-635.9767456054689	-504.4991455078126	1107.873779296875	-731.5701293945314	-521.3071899414064	1082.551391601563	-761.5350341796876	-514.6503295898439	1073.263061523438	-706.4004516601564	-217.4492950439454	815.0161743164065	-938.916687011719	-146.0044097900391	776.3858642578127	-914.1860351562502	-121.1885375976563	802.2351074218752	-880.0427856445315	-136.090805053711	718.2804565429689	-910.1389770507815	-102.2213439941407	671.1327514648439	-911.443054199219	-118.0424194335938	654.5272827148439	-774.6270751953127	25.30111122131348	514.1458740234376	-858.9197998046877	-2.700469255447388	457.5049743652345	-919.2563476562502	33.64944458007813	467.0230102539064	-893.9495239257815	65.30090332031251	394.1536865234376	-863.2336425781252	63.10534667968751	263.0106201171876	-900.3238525390627	53.70817184448244	281.5690307617188	-814.9086914062502	18.13186836242676	207.3954772949219	-867.0388793945315	219.5230865478516	284.0059814453126	-797.7482910156252	225.4580841064454	288.4542846679688	-835.746520996094	206.4226531982422	259.2567443847657	-894.7512207031252	-381.9353332519532	788.4517822265627	-588.5644531250001	-341.2697448730469	736.4089355468751	-592.6909790039064	-308.0119628906251	740.8252563476564	-595.6932983398439	-360.4747314453126	659.5673217773439	-620.7487182617189	-329.0436401367188	515.2405395507814	-647.0328369140626	-329.1860961914063	514.8059082031251	-777.5209960937502	-292.0873107910157	361.0480041503907	-749.8538818359376	-312.3890686035157	274.5214233398438	-688.4265747070314	-289.8762512207032	276.1071166992188	-731.2388916015626	-310.5903930664063	234.2896881103516	-766.5961303710939	-363.0099792480469	102.5219345092774	-722.3086547851564	-357.9704589843751	128.5180206298828	-807.092468261719	-433.0864257812501	83.25099945068361	-777.0524902343752	-209.0449523925782	54.43843078613283	-789.151062011719	-209.176254272461	52.8666343688965	-747.5579223632814	-253.2176361083985	35.36429977416993	-700.1389160156251	
